<?xml version="1.0" encoding="UTF-8" standalone="no"?>
<!DOCTYPE svg PUBLIC "-//W3C//DTD SVG 1.1//EN" "http://www.w3.org/Graphics/SVG/1.1/DTD/svg11.dtd">
<svg xmlns="http://www.w3.org/2000/svg" version="1.1" viewBox="0.00 0.00 1024.00 1024.00">
<g stroke-width="2.00" fill="none" stroke-linecap="butt">
<path stroke="#4b4a4a" vector-effect="non-scaling-stroke" d="
  M 709.44 185.53
  Q 709.52 186.24 710.21 186.64"
/>
<path stroke="#4b4a4a" vector-effect="non-scaling-stroke" d="
  M 711.98 188.95
  Q 711.95 189.44 712.48 189.55"
/>
<path stroke="#4b4a4a" vector-effect="non-scaling-stroke" d="
  M 730.02 211.91
  Q 729.85 212.40 730.56 212.61"
/>
<path stroke="#4b4a4a" vector-effect="non-scaling-stroke" d="
  M 730.56 212.61
  Q 730.51 213.05 730.63 213.36"
/>
<path stroke="#c7c6c5" vector-effect="non-scaling-stroke" d="
  M 730.63 213.36
  Q 730.57 213.35 730.51 213.35
  A 0.26 0.19 65.2 0 1 730.33 213.25
  Q 719.60 199.80 701.51 176.78
  Q 691.78 164.40 676.48 158.86
  Q 671.01 156.89 666.24 156.95
  Q 665.61 156.96 655.82 156.38
  Q 649.21 155.98 640.17 156.35
  Q 628.52 156.82 621.50 156.79
  C 549.28 156.42 435.91 157.20 366.26 156.39
  Q 358.43 156.29 349.01 160.78
  Q 348.62 160.97 347.87 161.04
  Q 347.24 161.11 346.79 161.53
  A 1.14 0.02 -42.8 0 1 346.05 162.19
  Q 343.69 163.64 338.05 167.80
  Q 336.29 169.09 335.13 170.32
  C 332.81 172.78 330.36 174.65 328.31 177.15
  Q 321.21 185.79 320.19 186.87
  Q 316.31 190.92 312.27 196.48
  Q 309.74 199.96 304.40 206.14
  Q 303.81 206.82 303.31 206.83"
/>
<path stroke="#4b4a4a" vector-effect="non-scaling-stroke" d="
  M 303.31 206.83
  L 303.24 206.25"
/>
<path stroke="#4b4a4a" vector-effect="non-scaling-stroke" d="
  M 749.62 237.52
  L 748.48 237.05"
/>
<path stroke="#838384" vector-effect="non-scaling-stroke" d="
  M 730.63 213.36
  L 748.48 237.05"
/>
<path stroke="#c7c6c5" vector-effect="non-scaling-stroke" d="
  M 748.48 237.05
  L 755.24 245.45"
/>
<path stroke="#838384" vector-effect="non-scaling-stroke" d="
  M 755.24 245.45
  L 803.14 307.01"
/>
<path stroke="#c7c6c5" vector-effect="non-scaling-stroke" d="
  M 803.14 307.01
  Q 803.32 307.74 803.70 307.81"
/>
<path stroke="#838384" vector-effect="non-scaling-stroke" d="
  M 803.70 307.81
  L 828.06 338.68
  A 3.82 3.76 -78.3 0 1 828.46 339.30
  Q 829.22 340.81 830.43 342.34
  Q 834.86 347.90 843.36 358.45
  A 2.16 2.04 16.7 0 1 843.70 359.04
  Q 843.90 359.53 844.09 359.76
  Q 855.88 374.08 858.78 378.67
  C 864.21 387.24 867.92 399.97 868.08 411.35
  Q 868.20 420.00 867.42 423.97
  Q 865.83 432.06 860.40 443.21
  C 857.89 448.38 852.88 453.43 849.77 457.77
  Q 842.70 467.66 834.03 477.78
  Q 829.28 483.32 822.20 492.93
  Q 817.71 499.04 803.22 516.45
  C 798.42 522.22 793.80 528.96 788.79 535.00
  C 785.95 538.43 783.48 542.99 780.86 546.11
  C 775.90 552.01 771.10 558.54 765.76 564.34
  C 761.88 568.54 759.17 573.48 755.05 578.55
  Q 747.00 588.44 742.18 594.84
  C 734.87 604.55 729.08 611.37 722.46 619.72
  C 720.55 622.14 717.71 626.73 715.32 629.62
  Q 701.90 645.83 698.91 649.66
  C 697.86 651.02 696.85 652.92 695.91 653.98
  Q 690.84 659.70 674.83 680.84
  C 668.23 689.55 659.61 699.23 653.02 708.61
  Q 649.89 713.07 643.28 721.15
  Q 642.42 722.22 633.66 733.77
  Q 630.92 737.39 622.25 748.05
  Q 620.65 750.02 619.15 752.31
  Q 616.91 755.74 616.14 756.64
  Q 603.45 771.33 594.77 783.13
  Q 588.36 791.85 581.66 799.84
  Q 577.23 805.13 568.67 816.66
  Q 568.63 816.71 557.75 830.21
  Q 551.12 838.43 546.04 845.29
  Q 540.34 852.98 529.81 860.04
  Q 524.83 863.38 518.63 865.38
  Q 501.34 870.99 486.22 862.42
  Q 479.35 858.53 475.13 854.68
  C 471.37 851.25 466.02 845.15 462.79 840.01
  C 459.93 835.44 456.52 831.69 453.45 827.21
  C 448.68 820.27 444.81 815.86 440.30 809.54
  Q 434.99 802.11 427.78 793.26
  C 423.96 788.59 421.06 783.44 417.19 778.75
  Q 413.26 773.97 408.99 767.76
  A 0.40 0.38 -11.2 0 0 408.74 767.60
  Q 408.59 767.56 408.45 767.58"
/>
<path stroke="#838384" vector-effect="non-scaling-stroke" d="
  M 408.45 767.58
  L 408.15 766.52
  A 1.39 1.31 18.5 0 0 407.86 765.98
  Q 399.02 755.67 392.05 745.65
  C 387.45 739.04 382.47 733.35 378.35 727.45
  C 374.18 721.47 371.43 718.33 366.39 711.95
  C 361.57 705.84 357.00 698.95 351.66 692.42
  C 348.13 688.11 345.54 683.49 341.89 679.14
  C 336.26 672.43 330.54 663.58 325.27 657.16
  C 319.57 650.23 314.88 643.29 308.92 635.95
  C 302.06 627.49 296.40 618.38 290.05 610.92"
/>
<path stroke="#838384" vector-effect="non-scaling-stroke" d="
  M 290.05 610.92
  Q 289.96 610.24 289.53 610.21"
/>
<path stroke="#838384" vector-effect="non-scaling-stroke" d="
  M 289.03 609.48
  Q 288.63 608.51 287.78 607.79"
/>
<path stroke="#838384" vector-effect="non-scaling-stroke" d="
  M 287.04 606.79
  Q 286.52 605.52 285.26 604.50"
/>
<path stroke="#838384" vector-effect="non-scaling-stroke" d="
  M 285.26 604.50
  L 270.43 585.55"
/>
<path stroke="#838384" vector-effect="non-scaling-stroke" d="
  M 270.43 585.55
  Q 270.29 584.57 270.02 584.22
  Q 261.99 573.71 256.69 566.42
  C 251.56 559.36 244.72 551.85 239.27 544.10
  C 234.12 536.78 229.65 531.15 226.42 526.47
  C 220.02 517.19 210.34 506.72 205.60 499.82
  C 200.68 492.67 195.68 486.74 191.68 480.56
  Q 190.59 478.87 189.80 477.92
  Q 180.94 467.21 170.19 452.70
  Q 164.50 445.03 161.93 439.51
  Q 158.10 431.29 156.74 424.86
  Q 154.14 412.52 156.77 398.15
  Q 157.75 392.82 160.04 387.73
  Q 160.65 386.38 160.78 384.81
  A 1.61 1.60 -25.1 0 1 161.09 383.96
  Q 162.47 382.05 163.23 379.25
  A 3.86 3.77 69.6 0 1 163.74 378.10
  C 168.32 371.18 175.70 363.00 179.54 358.38
  C 181.98 355.45 183.79 352.16 186.17 349.70
  Q 188.34 347.46 191.39 343.39
  Q 194.91 338.72 199.89 333.19
  C 201.04 331.91 201.92 330.25 202.89 329.14
  Q 215.92 314.15 222.32 306.05
  Q 236.11 288.58 243.27 280.21
  Q 253.31 268.48 264.36 254.50
  Q 278.13 237.08 296.65 215.64
  Q 297.33 214.85 297.80 213.30"
/>
<path stroke="#838384" vector-effect="non-scaling-stroke" d="
  M 297.80 213.30
  Q 299.62 211.90 300.74 209.74"
/>
<path stroke="#838384" vector-effect="non-scaling-stroke" d="
  M 300.74 209.74
  Q 301.38 209.53 301.93 208.72"
/>
<path stroke="#c7c6c5" vector-effect="non-scaling-stroke" d="
  M 301.93 208.72
  Q 303.16 207.85 303.31 206.83"
/>
<path stroke="#4b4a4a" vector-effect="non-scaling-stroke" d="
  M 301.93 208.72
  Q 302.04 208.40 301.98 208.01"
/>
<path stroke="#4b4a4a" vector-effect="non-scaling-stroke" d="
  M 303.31 206.83
  Q 303.10 206.75 302.88 206.79"
/>
<path stroke="#4b4a4a" vector-effect="non-scaling-stroke" d="
  M 755.23 244.39
  L 755.24 245.45"
/>
<path stroke="#4b4a4a" vector-effect="non-scaling-stroke" d="
  M 803.50 306.93
  Q 803.32 306.97 803.14 307.01"
/>
<path stroke="#4b4a4a" vector-effect="non-scaling-stroke" d="
  M 803.89 307.33
  Q 803.79 307.57 803.70 307.81"
/>
<path stroke="#838384" vector-effect="non-scaling-stroke" d="
  M 397.53 211.98
  Q 385.91 211.74 374.25 212.02
  Q 372.07 212.08 370.67 213.43
  Q 368.29 215.75 364.99 219.47
  Q 360.05 225.02 339.45 250.19
  Q 327.06 265.31 322.12 271.18
  C 314.45 280.29 303.97 293.44 294.48 304.25"
/>
<path stroke="#c7c6c5" vector-effect="non-scaling-stroke" d="
  M 294.48 304.25
  Q 293.42 304.78 293.70 305.73"
/>
<path stroke="#838384" vector-effect="non-scaling-stroke" d="
  M 293.70 305.73
  Q 293.53 305.94 293.48 306.22"
/>
<path stroke="#c7c6c5" vector-effect="non-scaling-stroke" d="
  M 292.84 306.95
  Q 292.91 306.79 292.84 306.66
  A 0.15 0.14 -39.4 0 0 292.60 306.64
  L 286.75 313.78"
/>
<path stroke="#838384" vector-effect="non-scaling-stroke" d="
  M 286.75 313.78
  C 278.95 323.52 271.01 333.95 263.11 342.82
  Q 252.45 354.77 243.90 366.41
  C 239.87 371.91 233.82 379.10 229.71 383.20
  A 1.18 1.18 0.0 0 0 229.84 384.97
  Q 230.42 385.40 231.37 385.63
  Q 243.24 388.44 253.29 389.89
  C 256.84 390.40 260.96 391.75 265.45 391.81
  C 268.41 391.85 270.98 392.85 273.64 393.04
  C 277.82 393.34 282.04 394.20 286.26 394.78"
/>
<path stroke="#c7c6c5" vector-effect="non-scaling-stroke" d="
  M 286.26 394.78
  Q 291.33 395.43 296.42 395.67
  Q 301.29 395.89 306.58 396.55
  Q 316.80 397.81 327.10 397.04"
/>
<path stroke="#838384" vector-effect="non-scaling-stroke" d="
  M 327.10 397.04
  Q 341.13 397.58 354.96 396.51"
/>
<path stroke="#c7c6c5" vector-effect="non-scaling-stroke" d="
  M 354.96 396.51
  Q 376.72 395.18 398.26 392.47
  Q 399.97 392.25 404.03 391.17
  Q 405.86 390.68 409.82 390.17
  Q 412.95 389.76 419.18 388.19
  A 1.70 1.32 30.5 0 1 419.58 388.14
  L 421.47 388.14
  A 2.69 2.54 35.4 0 0 422.19 388.04
  Q 439.66 382.81 456.26 376.94
  Q 460.28 375.52 462.03 374.69
  Q 466.23 372.70 467.69 372.18
  C 473.31 370.19 476.91 368.22 482.44 365.74
  Q 483.96 365.05 488.45 362.52
  Q 490.25 361.50 498.58 357.05
  Q 510.48 350.69 522.00 341.81"
/>
<path stroke="#838384" vector-effect="non-scaling-stroke" d="
  M 522.00 341.81
  L 535.52 331.72"
/>
<path stroke="#c7c6c5" vector-effect="non-scaling-stroke" d="
  M 535.52 331.72
  Q 535.78 331.65 536.04 331.32"
/>
<path stroke="#838384" vector-effect="non-scaling-stroke" d="
  M 536.04 331.32
  Q 539.06 328.64 542.25 326.15
  C 546.40 322.91 548.96 320.02 552.80 317.05
  Q 555.09 315.28 575.65 296.15
  Q 578.48 293.52 590.21 281.37
  C 603.20 267.93 616.62 252.15 627.10 239.87
  C 628.62 238.08 629.89 235.38 631.29 233.69
  Q 634.74 229.52 643.59 217.86
  Q 646.16 214.47 646.95 213.03
  A 0.77 0.76 25.6 0 0 646.57 211.96
  Q 646.26 211.83 645.51 211.84
  Q 632.97 212.03 627.08 211.63
  C 625.04 211.50 622.51 212.05 620.75 211.93
  Q 602.45 210.72 584.23 212.14"
/>
<path stroke="#838384" vector-effect="non-scaling-stroke" d="
  M 479.95 212.01
  L 472.06 212.08"
/>
<path stroke="#4b4a4a" vector-effect="non-scaling-stroke" d="
  M 354.96 396.51
  Q 355.33 395.85 356.80 395.98
  Q 357.03 396.00 357.25 395.95
  A 0.11 0.11 0.0 0 0 357.24 395.73
  L 355.78 395.61"
/>
<path stroke="#4b4a4a" vector-effect="non-scaling-stroke" d="
  M 385.70 392.63
  Q 386.17 393.20 386.82 392.48"
/>
<path stroke="#4b4a4a" vector-effect="non-scaling-stroke" d="
  M 397.96 390.69
  Q 398.64 390.78 399.20 390.54"
/>
<path stroke="#4b4a4a" vector-effect="non-scaling-stroke" d="
  M 536.04 331.32
  Q 535.80 331.23 535.52 331.72"
/>
<path stroke="#4b4a4a" vector-effect="non-scaling-stroke" d="
  M 522.00 341.81
  L 520.82 341.76"
/>
<path stroke="#4b4a4a" vector-effect="non-scaling-stroke" d="
  M 303.02 395.52
  L 300.03 394.90
  A 0.69 0.61 48.6 0 0 299.87 394.88
  L 286.26 394.78"
/>
<path stroke="#4b4a4a" vector-effect="non-scaling-stroke" d="
  M 292.54 307.28
  Q 291.64 307.67 292.04 308.03"
/>
<path stroke="#4b4a4a" vector-effect="non-scaling-stroke" d="
  M 287.86 313.23
  Q 287.26 313.48 287.57 313.78"
/>
<path stroke="#4b4a4a" vector-effect="non-scaling-stroke" d="
  M 287.57 313.78
  Q 287.18 313.66 286.75 313.78"
/>
<path stroke="#4b4a4a" vector-effect="non-scaling-stroke" d="
  M 294.63 304.98
  L 294.48 304.25"
/>
<path stroke="#4b4a4a" vector-effect="non-scaling-stroke" d="
  M 303.02 395.52
  Q 304.57 395.99 306.05 395.70"
/>
<path stroke="#4b4a4a" vector-effect="non-scaling-stroke" d="
  M 306.54 395.63
  L 307.96 395.66"
/>
<path stroke="#4b4a4a" vector-effect="non-scaling-stroke" d="
  M 320.50 395.81
  L 327.10 397.04"
/>
<path stroke="#4b4a4a" vector-effect="non-scaling-stroke" d="
  M 293.96 305.79
  Q 293.83 305.76 293.70 305.73"
/>
<path stroke="#838384" vector-effect="non-scaling-stroke" d="
  M 530.26 774.96
  Q 530.64 774.91 531.02 774.53"
/>
<path stroke="#c7c6c5" vector-effect="non-scaling-stroke" d="
  M 531.02 774.53
  Q 531.38 774.21 531.47 773.73"
/>
<path stroke="#838384" vector-effect="non-scaling-stroke" d="
  M 531.47 773.73
  L 532.75 771.77"
/>
<path stroke="#838384" vector-effect="non-scaling-stroke" d="
  M 532.75 771.77
  L 533.76 770.74"
/>
<path stroke="#c7c6c5" vector-effect="non-scaling-stroke" d="
  M 533.76 770.74
  Q 534.87 769.79 535.27 768.71"
/>
<path stroke="#838384" vector-effect="non-scaling-stroke" d="
  M 535.27 768.71
  Q 540.12 762.92 544.61 756.88
  Q 553.23 745.26 553.61 744.79
  Q 561.74 734.63 564.16 731.40
  Q 573.58 718.79 590.58 698.23
  A 2.00 1.99 -18.3 0 0 590.98 697.44
  Q 591.10 696.94 591.25 696.75
  C 594.96 692.09 598.37 687.33 601.53 683.66
  C 607.01 677.29 611.05 671.65 615.94 665.52
  Q 624.25 655.11 632.43 644.65"
/>
<path stroke="#c7c6c5" vector-effect="non-scaling-stroke" d="
  M 632.43 644.65
  L 633.62 642.75"
/>
<path stroke="#838384" vector-effect="non-scaling-stroke" d="
  M 633.62 642.75
  C 638.74 636.40 642.82 630.84 648.99 623.75
  Q 653.23 618.89 656.06 614.88
  Q 658.43 611.54 671.85 594.38
  Q 692.26 568.29 694.26 566.31
  C 696.45 564.15 698.22 560.92 700.27 558.27
  Q 709.28 546.68 717.10 537.36
  C 719.57 534.41 721.84 530.69 724.41 527.68
  C 729.51 521.68 733.53 516.28 739.26 509.27
  C 740.73 507.46 742.20 504.86 743.70 502.98
  Q 762.01 480.09 765.84 475.10
  Q 778.02 459.29 780.11 457.06
  C 781.25 455.85 782.20 453.95 783.29 452.53
  Q 791.47 441.86 802.45 428.88
  C 806.42 424.19 809.40 419.57 813.21 414.20
  A 3.18 3.18 0.0 0 0 813.17 410.47
  C 808.97 404.80 805.36 399.03 800.67 393.41
  Q 792.65 383.78 789.89 380.31
  C 787.87 377.77 785.90 374.26 784.26 372.25
  Q 776.77 363.07 770.41 354.10
  Q 769.26 352.47 760.83 342.54
  Q 755.69 336.49 751.55 330.76
  Q 736.25 309.63 721.87 292.43
  Q 720.55 290.85 713.97 281.91
  Q 709.26 275.51 706.29 271.79
  Q 696.38 259.41 695.12 257.18
  Q 695.01 256.99 681.53 240.23
  Q 680.78 239.29 680.10 237.57
  A 0.50 0.50 0.0 0 0 679.22 237.47
  Q 667.17 255.69 658.29 268.03
  Q 656.33 270.74 649.96 280.15
  C 647.74 283.42 645.72 287.40 643.18 290.45
  Q 641.46 292.52 637.83 298.00
  Q 634.46 303.08 628.41 310.66
  Q 626.62 312.90 616.23 328.49
  Q 613.97 331.89 612.50 333.79
  C 610.17 336.80 608.40 340.10 605.99 343.22
  C 603.21 346.83 601.08 349.40 598.55 353.25
  C 595.29 358.24 591.95 362.11 589.39 366.73
  C 587.40 370.31 584.76 373.07 582.94 376.75
  Q 582.26 378.13 580.27 380.90
  C 577.59 384.64 576.14 387.49 573.55 391.65
  Q 572.79 392.87 570.95 396.29
  Q 559.85 416.97 550.08 438.68
  Q 545.37 449.15 540.65 461.76
  Q 535.04 476.77 532.22 485.23
  Q 523.04 512.75 517.54 543.25
  Q 514.11 562.26 511.46 579.18
  C 510.38 586.07 510.21 591.45 509.76 597.64
  A 4.78 4.52 57.4 0 1 509.56 598.69
  Q 508.58 601.75 508.57 604.02
  Q 508.55 612.89 508.10 621.86
  Q 507.60 631.46 507.57 639.66
  Q 507.46 667.87 508.66 698.03
  C 508.83 702.15 509.88 706.76 510.22 711.69
  Q 511.14 725.31 511.74 726.50
  Q 511.77 726.54 512.03 731.46
  C 512.30 736.66 513.14 740.89 514.35 747.67
  Q 515.02 751.39 515.58 757.23
  Q 515.82 759.74 517.09 766.83
  A 9.92 9.68 -51.0 0 1 517.26 768.65
  Q 517.29 773.47 518.65 778.52
  Q 519.73 782.51 519.71 786.37
  A 0.50 0.49 79.6 0 0 520.38 786.84
  Q 520.62 786.75 520.92 786.42
  Q 524.19 782.78 527.14 779.64
  Q 529.10 777.55 530.26 774.96"
/>
<path stroke="#4b4a4a" vector-effect="non-scaling-stroke" d="
  M 633.62 642.75
  L 632.58 642.87"
/>
<path stroke="#4b4a4a" vector-effect="non-scaling-stroke" d="
  M 632.43 644.65
  Q 632.21 644.11 632.24 643.51"
/>
<path stroke="#4b4a4a" vector-effect="non-scaling-stroke" d="
  M 535.27 768.71
  L 534.71 768.76"
/>
<path stroke="#4b4a4a" vector-effect="non-scaling-stroke" d="
  M 531.02 774.53
  L 530.98 774.02"
/>
<path stroke="#4b4a4a" vector-effect="non-scaling-stroke" d="
  M 533.76 770.74
  L 533.67 770.27"
/>
<path stroke="#4b4a4a" vector-effect="non-scaling-stroke" d="
  M 531.47 773.73
  Q 531.35 773.76 531.23 773.78"
/>
<path stroke="#838384" vector-effect="non-scaling-stroke" d="
  M 343.58 452.44
  Q 342.45 451.64 341.64 452.52"
/>
<path stroke="#838384" vector-effect="non-scaling-stroke" d="
  M 339.56 452.46
  Q 339.18 451.95 338.72 452.49"
/>
<path stroke="#838384" vector-effect="non-scaling-stroke" d="
  M 338.72 452.49
  L 336.79 452.57"
/>
<path stroke="#838384" vector-effect="non-scaling-stroke" d="
  M 317.82 452.37
  Q 309.79 452.36 292.07 450.62
  Q 282.56 449.69 281.44 449.53
  Q 271.97 448.18 270.87 448.11
  C 262.56 447.59 252.48 446.51 243.57 444.21
  Q 238.87 443.00 233.01 442.39
  A 0.77 0.77 0.0 0 0 232.32 443.62
  L 384.89 644.48
  A 0.16 0.15 54.7 0 0 385.10 644.52
  Q 385.21 644.45 385.32 644.37"
/>
<path stroke="#838384" vector-effect="non-scaling-stroke" d="
  M 385.32 644.37
  Q 385.31 645.86 386.31 645.75"
/>
<path stroke="#838384" vector-effect="non-scaling-stroke" d="
  M 386.31 645.75
  Q 386.21 645.82 386.12 646.00
  A 0.36 0.35 39.6 0 0 386.16 646.38
  Q 396.63 659.56 402.48 667.51
  Q 414.57 683.96 427.39 700.64
  C 431.20 705.60 434.48 710.72 438.13 714.99
  Q 439.60 716.71 442.36 720.47
  Q 444.41 723.26 446.74 725.84"
/>
<path stroke="#838384" vector-effect="non-scaling-stroke" d="
  M 446.74 725.84
  Q 446.76 726.32 447.23 726.52"
/>
<path stroke="#838384" vector-effect="non-scaling-stroke" d="
  M 447.23 726.52
  Q 447.59 727.37 448.24 727.77"
/>
<path stroke="#838384" vector-effect="non-scaling-stroke" d="
  M 448.24 727.77
  L 467.21 753.03
  A 0.22 0.22 0.0 0 0 467.61 752.87
  L 466.88 746.63"
/>
<path stroke="#838384" vector-effect="non-scaling-stroke" d="
  M 466.69 744.51
  Q 465.88 738.20 465.44 731.78
  C 465.27 729.30 464.59 726.94 464.36 724.73
  Q 463.34 714.68 463.22 704.84
  A 4.12 4.10 37.3 0 0 463.07 703.74
  C 462.42 701.36 461.93 699.86 461.72 697.57
  Q 461.23 692.35 461.03 685.75
  Q 460.37 664.65 459.96 643.54"
/>
<path stroke="#c7c6c5" vector-effect="non-scaling-stroke" d="
  M 459.96 643.54
  L 459.78 641.54"
/>
<path stroke="#c7c6c5" vector-effect="non-scaling-stroke" d="
  M 459.60 633.04
  Q 459.91 632.13 459.58 631.19"
/>
<path stroke="#838384" vector-effect="non-scaling-stroke" d="
  M 459.58 631.19
  L 459.41 625.80"
/>
<path stroke="#c7c6c5" vector-effect="non-scaling-stroke" d="
  M 459.57 620.79
  Q 459.95 620.08 459.69 619.29"
/>
<path stroke="#838384" vector-effect="non-scaling-stroke" d="
  M 459.69 619.29
  L 459.79 618.04"
/>
<path stroke="#c7c6c5" vector-effect="non-scaling-stroke" d="
  M 459.79 618.04
  Q 459.99 617.68 459.89 617.21"
/>
<path stroke="#838384" vector-effect="non-scaling-stroke" d="
  M 459.89 617.21
  Q 460.72 608.51 461.28 594.25
  C 461.51 588.51 462.95 581.13 463.42 575.87
  Q 464.31 565.84 466.18 549.33
  C 466.67 545.06 467.64 540.16 468.65 533.83
  Q 470.28 523.62 475.50 501.22
  Q 477.27 493.62 480.31 483.35
  Q 482.26 476.72 485.60 465.58
  Q 491.74 445.06 499.22 427.63
  Q 500.68 424.22 501.75 420.98
  Q 503.50 415.68 504.30 414.43
  A 0.47 0.46 5.4 0 0 503.73 413.75
  Q 502.68 414.17 500.91 415.64
  A 4.89 4.69 -77.2 0 1 500.03 416.22
  Q 487.07 422.76 479.98 425.72
  Q 454.36 436.42 426.13 443.19
  Q 424.21 443.65 422.55 443.80
  A 2.69 2.69 0.0 0 0 421.62 444.07
  C 417.21 446.30 411.91 445.45 406.96 447.22
  C 403.88 448.31 400.16 447.92 396.68 448.43
  Q 388.84 449.56 381.00 450.81
  Q 376.21 451.57 374.69 451.24
  A 0.28 0.28 0.0 0 0 374.43 451.70
  Q 374.53 451.81 375.36 451.62
  Q 367.06 451.58 358.76 451.93
  Q 356.02 452.05 353.29 452.48"
/>
<path stroke="#4b4a4a" vector-effect="non-scaling-stroke" d="
  M 459.89 617.21
  Q 459.85 617.25 459.81 617.28"
/>
<path stroke="#4b4a4a" vector-effect="non-scaling-stroke" d="
  M 459.79 618.04
  Q 459.72 617.92 459.66 617.79"
/>
<path stroke="#4b4a4a" vector-effect="non-scaling-stroke" d="
  M 459.69 619.29
  Q 459.65 619.27 459.61 619.25"
/>
<path stroke="#4b4a4a" vector-effect="non-scaling-stroke" d="
  M 459.58 631.19
  Q 459.53 631.29 459.48 631.40"
/>
<path stroke="#4b4a4a" vector-effect="non-scaling-stroke" d="
  M 459.96 643.54
  Q 459.91 643.54 459.85 643.54"
/>
<path stroke="#c7c6c5" vector-effect="non-scaling-stroke" d="
  M 439.51 439.58
  Q 439.26 439.53 439.13 439.64
  A 0.07 0.07 0.0 0 0 439.16 439.76
  Q 439.37 439.80 439.53 439.72
  A 0.08 0.07 -53.3 0 0 439.51 439.58"
/>
</g>
<path fill="#8e8d8b" d="
  M 709.44 185.53
  Q 709.52 186.24 710.21 186.64
  Q 711.31 187.66 711.98 188.95
  Q 711.95 189.44 712.48 189.55
  L 727.51 207.70
  A 2.07 2.04 16.0 0 1 727.86 208.32
  Q 728.57 210.29 730.02 211.91
  Q 729.85 212.40 730.56 212.61
  Q 730.51 213.05 730.63 213.36
  Q 730.57 213.35 730.51 213.35
  A 0.26 0.19 65.2 0 1 730.33 213.25
  Q 719.60 199.80 701.51 176.78
  Q 691.78 164.40 676.48 158.86
  Q 671.01 156.89 666.24 156.95
  Q 665.61 156.96 655.82 156.38
  Q 649.21 155.98 640.17 156.35
  Q 628.52 156.82 621.50 156.79
  C 549.28 156.42 435.91 157.20 366.26 156.39
  Q 358.43 156.29 349.01 160.78
  Q 348.62 160.97 347.87 161.04
  Q 347.24 161.11 346.79 161.53
  A 1.14 0.02 -42.8 0 1 346.05 162.19
  Q 343.69 163.64 338.05 167.80
  Q 336.29 169.09 335.13 170.32
  C 332.81 172.78 330.36 174.65 328.31 177.15
  Q 321.21 185.79 320.19 186.87
  Q 316.31 190.92 312.27 196.48
  Q 309.74 199.96 304.40 206.14
  Q 303.81 206.82 303.31 206.83
  L 303.24 206.25
  Q 304.40 204.94 305.07 203.36
  A 3.21 2.95 78.5 0 1 305.54 202.58
  Q 319.71 185.09 332.40 170.89
  Q 334.68 168.34 337.61 165.87
  Q 337.89 165.64 338.64 165.13
  Q 347.57 159.00 355.89 155.98
  C 357.26 155.48 357.99 154.51 359.22 154.09
  A 1.68 1.44 -49.3 0 1 359.68 154.02
  L 666.54 154.02
  A 0.70 0.63 -29.7 0 1 666.82 154.08
  L 669.55 155.40
  A 10.25 9.47 -22.3 0 0 671.24 156.03
  Q 680.67 158.62 684.30 160.53
  Q 690.22 163.65 696.44 169.06
  Q 702.57 174.40 709.44 185.53
  Z"
/>
<path fill="#ffffff" d="
  M 730.63 213.36
  L 748.48 237.05
  L 755.24 245.45
  L 803.14 307.01
  Q 803.32 307.74 803.70 307.81
  L 828.06 338.68
  A 3.82 3.76 -78.3 0 1 828.46 339.30
  Q 829.22 340.81 830.43 342.34
  Q 834.86 347.90 843.36 358.45
  A 2.16 2.04 16.7 0 1 843.70 359.04
  Q 843.90 359.53 844.09 359.76
  Q 855.88 374.08 858.78 378.67
  C 864.21 387.24 867.92 399.97 868.08 411.35
  Q 868.20 420.00 867.42 423.97
  Q 865.83 432.06 860.40 443.21
  C 857.89 448.38 852.88 453.43 849.77 457.77
  Q 842.70 467.66 834.03 477.78
  Q 829.28 483.32 822.20 492.93
  Q 817.71 499.04 803.22 516.45
  C 798.42 522.22 793.80 528.96 788.79 535.00
  C 785.95 538.43 783.48 542.99 780.86 546.11
  C 775.90 552.01 771.10 558.54 765.76 564.34
  C 761.88 568.54 759.17 573.48 755.05 578.55
  Q 747.00 588.44 742.18 594.84
  C 734.87 604.55 729.08 611.37 722.46 619.72
  C 720.55 622.14 717.71 626.73 715.32 629.62
  Q 701.90 645.83 698.91 649.66
  C 697.86 651.02 696.85 652.92 695.91 653.98
  Q 690.84 659.70 674.83 680.84
  C 668.23 689.55 659.61 699.23 653.02 708.61
  Q 649.89 713.07 643.28 721.15
  Q 642.42 722.22 633.66 733.77
  Q 630.92 737.39 622.25 748.05
  Q 620.65 750.02 619.15 752.31
  Q 616.91 755.74 616.14 756.64
  Q 603.45 771.33 594.77 783.13
  Q 588.36 791.85 581.66 799.84
  Q 577.23 805.13 568.67 816.66
  Q 568.63 816.71 557.75 830.21
  Q 551.12 838.43 546.04 845.29
  Q 540.34 852.98 529.81 860.04
  Q 524.83 863.38 518.63 865.38
  Q 501.34 870.99 486.22 862.42
  Q 479.35 858.53 475.13 854.68
  C 471.37 851.25 466.02 845.15 462.79 840.01
  C 459.93 835.44 456.52 831.69 453.45 827.21
  C 448.68 820.27 444.81 815.86 440.30 809.54
  Q 434.99 802.11 427.78 793.26
  C 423.96 788.59 421.06 783.44 417.19 778.75
  Q 413.26 773.97 408.99 767.76
  A 0.40 0.38 -11.2 0 0 408.74 767.60
  Q 408.59 767.56 408.45 767.58
  L 408.15 766.52
  A 1.39 1.31 18.5 0 0 407.86 765.98
  Q 399.02 755.67 392.05 745.65
  C 387.45 739.04 382.47 733.35 378.35 727.45
  C 374.18 721.47 371.43 718.33 366.39 711.95
  C 361.57 705.84 357.00 698.95 351.66 692.42
  C 348.13 688.11 345.54 683.49 341.89 679.14
  C 336.26 672.43 330.54 663.58 325.27 657.16
  C 319.57 650.23 314.88 643.29 308.92 635.95
  C 302.06 627.49 296.40 618.38 290.05 610.92
  Q 289.96 610.24 289.53 610.21
  L 289.03 609.48
  Q 288.63 608.51 287.78 607.79
  L 287.04 606.79
  Q 286.52 605.52 285.26 604.50
  L 270.43 585.55
  Q 270.29 584.57 270.02 584.22
  Q 261.99 573.71 256.69 566.42
  C 251.56 559.36 244.72 551.85 239.27 544.10
  C 234.12 536.78 229.65 531.15 226.42 526.47
  C 220.02 517.19 210.34 506.72 205.60 499.82
  C 200.68 492.67 195.68 486.74 191.68 480.56
  Q 190.59 478.87 189.80 477.92
  Q 180.94 467.21 170.19 452.70
  Q 164.50 445.03 161.93 439.51
  Q 158.10 431.29 156.74 424.86
  Q 154.14 412.52 156.77 398.15
  Q 157.75 392.82 160.04 387.73
  Q 160.65 386.38 160.78 384.81
  A 1.61 1.60 -25.1 0 1 161.09 383.96
  Q 162.47 382.05 163.23 379.25
  A 3.86 3.77 69.6 0 1 163.74 378.10
  C 168.32 371.18 175.70 363.00 179.54 358.38
  C 181.98 355.45 183.79 352.16 186.17 349.70
  Q 188.34 347.46 191.39 343.39
  Q 194.91 338.72 199.89 333.19
  C 201.04 331.91 201.92 330.25 202.89 329.14
  Q 215.92 314.15 222.32 306.05
  Q 236.11 288.58 243.27 280.21
  Q 253.31 268.48 264.36 254.50
  Q 278.13 237.08 296.65 215.64
  Q 297.33 214.85 297.80 213.30
  Q 299.62 211.90 300.74 209.74
  Q 301.38 209.53 301.93 208.72
  Q 303.16 207.85 303.31 206.83
  Q 303.81 206.82 304.40 206.14
  Q 309.74 199.96 312.27 196.48
  Q 316.31 190.92 320.19 186.87
  Q 321.21 185.79 328.31 177.15
  C 330.36 174.65 332.81 172.78 335.13 170.32
  Q 336.29 169.09 338.05 167.80
  Q 343.69 163.64 346.05 162.19
  A 1.14 0.02 -42.8 0 0 346.79 161.53
  Q 347.24 161.11 347.87 161.04
  Q 348.62 160.97 349.01 160.78
  Q 358.43 156.29 366.26 156.39
  C 435.91 157.20 549.28 156.42 621.50 156.79
  Q 628.52 156.82 640.17 156.35
  Q 649.21 155.98 655.82 156.38
  Q 665.61 156.96 666.24 156.95
  Q 671.01 156.89 676.48 158.86
  Q 691.78 164.40 701.51 176.78
  Q 719.60 199.80 730.33 213.25
  A 0.26 0.19 65.2 0 0 730.51 213.35
  Q 730.57 213.35 730.63 213.36
  Z
  M 397.53 211.98
  Q 385.91 211.74 374.25 212.02
  Q 372.07 212.08 370.67 213.43
  Q 368.29 215.75 364.99 219.47
  Q 360.05 225.02 339.45 250.19
  Q 327.06 265.31 322.12 271.18
  C 314.45 280.29 303.97 293.44 294.48 304.25
  Q 293.42 304.78 293.70 305.73
  Q 293.53 305.94 293.48 306.22
  L 292.84 306.95
  Q 292.91 306.79 292.84 306.66
  A 0.15 0.14 -39.4 0 0 292.60 306.64
  L 286.75 313.78
  C 278.95 323.52 271.01 333.95 263.11 342.82
  Q 252.45 354.77 243.90 366.41
  C 239.87 371.91 233.82 379.10 229.71 383.20
  A 1.18 1.18 0.0 0 0 229.84 384.97
  Q 230.42 385.40 231.37 385.63
  Q 243.24 388.44 253.29 389.89
  C 256.84 390.40 260.96 391.75 265.45 391.81
  C 268.41 391.85 270.98 392.85 273.64 393.04
  C 277.82 393.34 282.04 394.20 286.26 394.78
  Q 291.33 395.43 296.42 395.67
  Q 301.29 395.89 306.58 396.55
  Q 316.80 397.81 327.10 397.04
  Q 341.13 397.58 354.96 396.51
  Q 376.72 395.18 398.26 392.47
  Q 399.97 392.25 404.03 391.17
  Q 405.86 390.68 409.82 390.17
  Q 412.95 389.76 419.18 388.19
  A 1.70 1.32 30.5 0 1 419.58 388.14
  L 421.47 388.14
  A 2.69 2.54 35.4 0 0 422.19 388.04
  Q 439.66 382.81 456.26 376.94
  Q 460.28 375.52 462.03 374.69
  Q 466.23 372.70 467.69 372.18
  C 473.31 370.19 476.91 368.22 482.44 365.74
  Q 483.96 365.05 488.45 362.52
  Q 490.25 361.50 498.58 357.05
  Q 510.48 350.69 522.00 341.81
  L 535.52 331.72
  Q 535.78 331.65 536.04 331.32
  Q 539.06 328.64 542.25 326.15
  C 546.40 322.91 548.96 320.02 552.80 317.05
  Q 555.09 315.28 575.65 296.15
  Q 578.48 293.52 590.21 281.37
  C 603.20 267.93 616.62 252.15 627.10 239.87
  C 628.62 238.08 629.89 235.38 631.29 233.69
  Q 634.74 229.52 643.59 217.86
  Q 646.16 214.47 646.95 213.03
  A 0.77 0.76 25.6 0 0 646.57 211.96
  Q 646.26 211.83 645.51 211.84
  Q 632.97 212.03 627.08 211.63
  C 625.04 211.50 622.51 212.05 620.75 211.93
  Q 602.45 210.72 584.23 212.14
  Q 572.33 211.68 560.50 211.59
  Q 535.38 211.40 510.25 211.35
  Q 498.73 211.33 479.95 212.01
  L 472.06 212.08
  Q 434.72 210.55 397.53 211.98
  Z
  M 530.26 774.96
  Q 530.64 774.91 531.02 774.53
  Q 531.38 774.21 531.47 773.73
  L 532.75 771.77
  L 533.76 770.74
  Q 534.87 769.79 535.27 768.71
  Q 540.12 762.92 544.61 756.88
  Q 553.23 745.26 553.61 744.79
  Q 561.74 734.63 564.16 731.40
  Q 573.58 718.79 590.58 698.23
  A 2.00 1.99 -18.3 0 0 590.98 697.44
  Q 591.10 696.94 591.25 696.75
  C 594.96 692.09 598.37 687.33 601.53 683.66
  C 607.01 677.29 611.05 671.65 615.94 665.52
  Q 624.25 655.11 632.43 644.65
  L 633.62 642.75
  C 638.74 636.40 642.82 630.84 648.99 623.75
  Q 653.23 618.89 656.06 614.88
  Q 658.43 611.54 671.85 594.38
  Q 692.26 568.29 694.26 566.31
  C 696.45 564.15 698.22 560.92 700.27 558.27
  Q 709.28 546.68 717.10 537.36
  C 719.57 534.41 721.84 530.69 724.41 527.68
  C 729.51 521.68 733.53 516.28 739.26 509.27
  C 740.73 507.46 742.20 504.86 743.70 502.98
  Q 762.01 480.09 765.84 475.10
  Q 778.02 459.29 780.11 457.06
  C 781.25 455.85 782.20 453.95 783.29 452.53
  Q 791.47 441.86 802.45 428.88
  C 806.42 424.19 809.40 419.57 813.21 414.20
  A 3.18 3.18 0.0 0 0 813.17 410.47
  C 808.97 404.80 805.36 399.03 800.67 393.41
  Q 792.65 383.78 789.89 380.31
  C 787.87 377.77 785.90 374.26 784.26 372.25
  Q 776.77 363.07 770.41 354.10
  Q 769.26 352.47 760.83 342.54
  Q 755.69 336.49 751.55 330.76
  Q 736.25 309.63 721.87 292.43
  Q 720.55 290.85 713.97 281.91
  Q 709.26 275.51 706.29 271.79
  Q 696.38 259.41 695.12 257.18
  Q 695.01 256.99 681.53 240.23
  Q 680.78 239.29 680.10 237.57
  A 0.50 0.50 0.0 0 0 679.22 237.47
  Q 667.17 255.69 658.29 268.03
  Q 656.33 270.74 649.96 280.15
  C 647.74 283.42 645.72 287.40 643.18 290.45
  Q 641.46 292.52 637.83 298.00
  Q 634.46 303.08 628.41 310.66
  Q 626.62 312.90 616.23 328.49
  Q 613.97 331.89 612.50 333.79
  C 610.17 336.80 608.40 340.10 605.99 343.22
  C 603.21 346.83 601.08 349.40 598.55 353.25
  C 595.29 358.24 591.95 362.11 589.39 366.73
  C 587.40 370.31 584.76 373.07 582.94 376.75
  Q 582.26 378.13 580.27 380.90
  C 577.59 384.64 576.14 387.49 573.55 391.65
  Q 572.79 392.87 570.95 396.29
  Q 559.85 416.97 550.08 438.68
  Q 545.37 449.15 540.65 461.76
  Q 535.04 476.77 532.22 485.23
  Q 523.04 512.75 517.54 543.25
  Q 514.11 562.26 511.46 579.18
  C 510.38 586.07 510.21 591.45 509.76 597.64
  A 4.78 4.52 57.4 0 1 509.56 598.69
  Q 508.58 601.75 508.57 604.02
  Q 508.55 612.89 508.10 621.86
  Q 507.60 631.46 507.57 639.66
  Q 507.46 667.87 508.66 698.03
  C 508.83 702.15 509.88 706.76 510.22 711.69
  Q 511.14 725.31 511.74 726.50
  Q 511.77 726.54 512.03 731.46
  C 512.30 736.66 513.14 740.89 514.35 747.67
  Q 515.02 751.39 515.58 757.23
  Q 515.82 759.74 517.09 766.83
  A 9.92 9.68 -51.0 0 1 517.26 768.65
  Q 517.29 773.47 518.65 778.52
  Q 519.73 782.51 519.71 786.37
  A 0.50 0.49 79.6 0 0 520.38 786.84
  Q 520.62 786.75 520.92 786.42
  Q 524.19 782.78 527.14 779.64
  Q 529.10 777.55 530.26 774.96
  Z
  M 353.29 452.48
  L 343.58 452.44
  Q 342.45 451.64 341.64 452.52
  L 339.56 452.46
  Q 339.18 451.95 338.72 452.49
  L 336.79 452.57
  L 317.82 452.37
  Q 309.79 452.36 292.07 450.62
  Q 282.56 449.69 281.44 449.53
  Q 271.97 448.18 270.87 448.11
  C 262.56 447.59 252.48 446.51 243.57 444.21
  Q 238.87 443.00 233.01 442.39
  A 0.77 0.77 0.0 0 0 232.32 443.62
  L 384.89 644.48
  A 0.16 0.15 54.7 0 0 385.10 644.52
  Q 385.21 644.45 385.32 644.37
  Q 385.31 645.86 386.31 645.75
  Q 386.21 645.82 386.12 646.00
  A 0.36 0.35 39.6 0 0 386.16 646.38
  Q 396.63 659.56 402.48 667.51
  Q 414.57 683.96 427.39 700.64
  C 431.20 705.60 434.48 710.72 438.13 714.99
  Q 439.60 716.71 442.36 720.47
  Q 444.41 723.26 446.74 725.84
  Q 446.76 726.32 447.23 726.52
  Q 447.59 727.37 448.24 727.77
  L 467.21 753.03
  A 0.22 0.22 0.0 0 0 467.61 752.87
  L 466.88 746.63
  L 466.69 744.51
  Q 465.88 738.20 465.44 731.78
  C 465.27 729.30 464.59 726.94 464.36 724.73
  Q 463.34 714.68 463.22 704.84
  A 4.12 4.10 37.3 0 0 463.07 703.74
  C 462.42 701.36 461.93 699.86 461.72 697.57
  Q 461.23 692.35 461.03 685.75
  Q 460.37 664.65 459.96 643.54
  L 459.78 641.54
  L 459.60 633.04
  Q 459.91 632.13 459.58 631.19
  L 459.41 625.80
  L 459.57 620.79
  Q 459.95 620.08 459.69 619.29
  L 459.79 618.04
  Q 459.99 617.68 459.89 617.21
  Q 460.72 608.51 461.28 594.25
  C 461.51 588.51 462.95 581.13 463.42 575.87
  Q 464.31 565.84 466.18 549.33
  C 466.67 545.06 467.64 540.16 468.65 533.83
  Q 470.28 523.62 475.50 501.22
  Q 477.27 493.62 480.31 483.35
  Q 482.26 476.72 485.60 465.58
  Q 491.74 445.06 499.22 427.63
  Q 500.68 424.22 501.75 420.98
  Q 503.50 415.68 504.30 414.43
  A 0.47 0.46 5.4 0 0 503.73 413.75
  Q 502.68 414.17 500.91 415.64
  A 4.89 4.69 -77.2 0 1 500.03 416.22
  Q 487.07 422.76 479.98 425.72
  Q 454.36 436.42 426.13 443.19
  Q 424.21 443.65 422.55 443.80
  A 2.69 2.69 0.0 0 0 421.62 444.07
  C 417.21 446.30 411.91 445.45 406.96 447.22
  C 403.88 448.31 400.16 447.92 396.68 448.43
  Q 388.84 449.56 381.00 450.81
  Q 376.21 451.57 374.69 451.24
  A 0.28 0.28 0.0 0 0 374.43 451.70
  Q 374.53 451.81 375.36 451.62
  Q 367.06 451.58 358.76 451.93
  Q 356.02 452.05 353.29 452.48
  Z
  M 439.51 439.58
  Q 439.26 439.53 439.13 439.64
  A 0.07 0.07 0.0 0 0 439.16 439.76
  Q 439.37 439.80 439.53 439.72
  A 0.08 0.07 -53.3 0 0 439.51 439.58
  Z"
/>
<path fill="#070708" d="
  M 710.21 186.64
  Q 709.52 186.24 709.44 185.53
  Q 710.04 185.96 710.21 186.64
  Z"
/>
<path fill="#070708" d="
  M 712.48 189.55
  Q 711.95 189.44 711.98 188.95
  Q 712.43 189.18 712.48 189.55
  Z"
/>
<path fill="#070708" d="
  M 303.24 206.25
  L 303.31 206.83
  Q 303.10 206.75 302.88 206.79
  Q 302.97 206.50 303.24 206.25
  Z"
/>
<path fill="#8e8d8b" d="
  M 303.31 206.83
  Q 303.16 207.85 301.93 208.72
  Q 302.04 208.40 301.98 208.01
  Q 302.28 207.36 302.88 206.79
  Q 303.10 206.75 303.31 206.83
  Z"
/>
<path fill="#070708" d="
  M 301.98 208.01
  Q 302.04 208.40 301.93 208.72
  Q 301.38 209.53 300.74 209.74
  L 301.98 208.01
  Z"
/>
<path fill="#070708" d="
  M 300.74 209.74
  Q 299.62 211.90 297.80 213.30
  L 300.74 209.74
  Z"
/>
<path fill="#070708" d="
  M 536.04 331.32
  Q 535.80 331.23 535.52 331.72
  L 522.00 341.81
  L 520.82 341.76
  L 524.81 338.54
  A 1.73 1.15 -0.0 0 1 525.08 338.36
  Q 528.37 336.52 531.04 333.91
  A 3.13 2.93 -80.6 0 1 531.68 333.42
  C 535.02 331.49 537.43 328.50 540.16 326.92
  Q 540.81 326.55 544.87 322.78
  Q 546.67 321.10 549.59 318.72
  Q 553.54 315.52 558.53 310.16
  A 1.15 1.09 15.0 0 1 559.12 309.84
  Q 559.51 309.76 559.65 309.63
  Q 576.65 294.58 580.19 290.44
  Q 582.79 287.39 584.56 285.93
  C 588.81 282.42 592.25 278.69 595.48 274.94
  C 606.26 262.42 617.27 250.14 627.78 237.45
  Q 631.01 233.56 633.63 229.57
  Q 637.10 224.30 642.52 218.52
  Q 643.54 217.42 644.50 215.82
  A 1.39 1.38 15.2 0 0 643.30 213.73
  Q 635.50 213.76 626.75 213.28
  Q 625.54 213.22 624.05 212.70
  A 2.77 2.48 54.5 0 0 623.38 212.55
  Q 609.12 211.25 594.79 212.01
  A 2.54 2.49 30.0 0 0 593.86 212.25
  Q 589.63 214.23 584.23 212.14
  Q 602.45 210.72 620.75 211.93
  C 622.51 212.05 625.04 211.50 627.08 211.63
  Q 632.97 212.03 645.51 211.84
  Q 646.26 211.83 646.57 211.96
  A 0.77 0.76 25.6 0 1 646.95 213.03
  Q 646.16 214.47 643.59 217.86
  Q 634.74 229.52 631.29 233.69
  C 629.89 235.38 628.62 238.08 627.10 239.87
  C 616.62 252.15 603.20 267.93 590.21 281.37
  Q 578.48 293.52 575.65 296.15
  Q 555.09 315.28 552.80 317.05
  C 548.96 320.02 546.40 322.91 542.25 326.15
  Q 539.06 328.64 536.04 331.32
  Z"
/>
<path fill="#070708" d="
  M 397.53 211.98
  Q 385.44 214.21 373.01 213.95
  Q 371.50 213.92 369.75 216.05
  Q 368.80 217.19 368.65 217.37
  Q 355.04 232.74 338.14 252.64
  Q 335.83 255.36 335.53 257.05
  A 0.88 0.87 86.9 0 1 334.91 257.75
  L 333.87 258.06
  A 1.80 1.75 -78.6 0 0 332.95 258.69
  C 330.42 261.96 328.29 264.40 326.38 267.66
  C 324.91 270.16 322.46 271.61 321.06 273.82
  Q 320.04 275.44 319.40 276.21
  Q 307.30 290.83 294.63 304.98
  L 294.48 304.25
  C 303.97 293.44 314.45 280.29 322.12 271.18
  Q 327.06 265.31 339.45 250.19
  Q 360.05 225.02 364.99 219.47
  Q 368.29 215.75 370.67 213.43
  Q 372.07 212.08 374.25 212.02
  Q 385.91 211.74 397.53 211.98
  Z"
/>
<path fill="#070708" d="
  M 479.95 212.01
  Q 477.47 214.05 472.06 212.08
  L 479.95 212.01
  Z"
/>
<path fill="#070708" d="
  M 730.56 212.61
  Q 729.85 212.40 730.02 211.91
  L 730.56 212.61
  Z"
/>
<path fill="#070708" d="
  M 749.62 237.52
  L 748.48 237.05
  L 730.63 213.36
  Q 730.51 213.05 730.56 212.61
  L 749.62 237.52
  Z"
/>
<path fill="#070708" d="
  M 297.80 213.30
  Q 297.33 214.85 296.65 215.64
  Q 278.13 237.08 264.36 254.50
  Q 253.31 268.48 243.27 280.21
  Q 236.11 288.58 222.32 306.05
  Q 215.92 314.15 202.89 329.14
  C 201.92 330.25 201.04 331.91 199.89 333.19
  Q 194.91 338.72 191.39 343.39
  Q 188.34 347.46 186.17 349.70
  C 183.79 352.16 181.98 355.45 179.54 358.38
  C 175.70 363.00 168.32 371.18 163.74 378.10
  A 3.86 3.77 69.6 0 0 163.23 379.25
  Q 162.47 382.05 161.09 383.96
  A 1.61 1.60 -25.1 0 0 160.78 384.81
  Q 160.65 386.38 160.04 387.73
  Q 157.75 392.82 156.77 398.15
  Q 154.14 412.52 156.74 424.86
  Q 158.10 431.29 161.93 439.51
  Q 164.50 445.03 170.19 452.70
  Q 180.94 467.21 189.80 477.92
  Q 190.59 478.87 191.68 480.56
  C 195.68 486.74 200.68 492.67 205.60 499.82
  C 210.34 506.72 220.02 517.19 226.42 526.47
  C 229.65 531.15 234.12 536.78 239.27 544.10
  C 244.72 551.85 251.56 559.36 256.69 566.42
  Q 261.99 573.71 270.02 584.22
  Q 270.29 584.57 270.43 585.55
  Q 266.29 580.53 262.40 575.32
  Q 261.21 573.71 260.11 572.10
  Q 257.03 567.58 255.18 565.33
  Q 246.04 554.26 239.06 545.69
  Q 238.92 545.52 238.78 544.99
  Q 238.67 544.56 238.48 544.28
  Q 234.24 538.09 229.90 532.75
  Q 228.32 530.81 226.73 528.23
  Q 224.71 524.95 223.60 523.64
  Q 213.14 511.16 207.45 504.06
  A 3.65 3.55 15.9 0 1 206.94 503.17
  Q 206.57 502.24 206.22 501.77
  Q 200.92 494.50 194.11 486.21
  A 3.93 3.64 -78.8 0 1 193.58 485.35
  Q 192.46 482.80 190.64 480.61
  Q 183.05 471.45 178.16 464.91
  Q 176.92 463.26 175.69 461.55
  Q 169.99 453.66 164.55 446.91
  A 4.05 3.97 -76.9 0 1 164.02 446.04
  C 159.68 436.82 157.84 432.96 155.41 424.56
  Q 155.29 424.14 154.62 422.93
  A 2.45 2.33 -63.8 0 1 154.33 422.00
  Q 153.31 412.41 154.30 403.08
  A 0.40 0.34 -40.3 0 1 154.32 402.96
  L 157.07 391.74
  A 1.07 0.66 76.7 0 1 157.12 391.59
  Q 158.64 388.08 158.97 384.69
  A 1.98 1.97 -24.5 0 1 159.34 383.71
  C 161.63 380.50 163.91 375.77 166.96 372.05
  Q 172.24 365.60 181.22 354.97
  C 183.92 351.77 186.55 347.18 188.77 344.48
  Q 198.53 332.55 208.78 321.05
  Q 220.38 308.02 226.11 299.89
  Q 231.56 292.16 235.59 287.60
  Q 254.35 266.36 262.75 255.26
  Q 262.78 255.23 263.97 253.31
  Q 264.84 251.91 265.26 251.38
  Q 274.41 239.90 285.31 227.83
  C 288.99 223.76 293.47 218.01 297.80 213.30
  Z"
/>
<path fill="#8e8d8b" d="
  M 749.62 237.52
  L 755.23 244.39
  L 755.24 245.45
  L 748.48 237.05
  L 749.62 237.52
  Z"
/>
<path fill="#070708" d="
  M 633.62 642.75
  L 632.58 642.87
  Q 635.07 638.94 638.10 635.33
  Q 655.25 614.92 657.00 612.75
  Q 658.52 610.86 659.83 608.82
  Q 661.46 606.28 662.59 604.88
  Q 673.26 591.71 677.96 585.47
  Q 678.65 584.56 679.40 582.84
  A 0.94 0.89 77.1 0 1 679.53 582.62
  Q 695.94 562.86 698.89 559.17
  C 700.94 556.61 703.30 552.50 705.57 549.82
  Q 715.12 538.54 721.55 530.55
  C 723.24 528.44 725.11 525.15 726.79 523.07
  Q 737.34 510.06 744.28 501.33
  A 1.45 1.35 -16.3 0 0 744.50 500.96
  Q 745.02 499.75 746.00 498.50
  Q 751.85 491.12 760.52 480.77
  Q 762.80 478.05 766.40 472.62
  C 769.70 467.65 775.83 461.12 780.43 455.09
  C 782.40 452.50 784.80 449.96 786.28 446.98
  A 3.29 3.10 -13.6 0 1 786.67 446.38
  Q 796.72 434.15 803.40 426.40
  Q 807.70 421.41 809.34 417.55
  A 1.37 1.11 -20.5 0 1 809.54 417.21
  L 812.50 413.56
  A 1.90 1.90 0.0 0 0 812.50 411.18
  L 809.65 407.63
  A 0.80 0.46 30.1 0 1 809.57 407.49
  Q 807.95 403.80 806.47 402.02
  Q 800.16 394.40 795.96 389.52
  Q 791.02 383.78 786.30 376.63
  Q 783.93 373.03 778.74 366.94
  Q 777.36 365.33 772.95 358.84
  Q 769.89 354.34 766.98 351.03
  Q 756.99 339.65 752.50 333.62
  A 3.31 3.23 15.7 0 1 752.05 332.84
  C 750.76 329.71 747.29 326.03 743.43 321.24
  C 742.22 319.73 741.07 317.65 739.22 315.72
  A 4.63 4.38 -84.6 0 1 738.62 314.95
  Q 735.05 309.19 733.07 306.92
  Q 724.01 296.50 715.84 286.21
  A 1.11 0.98 -75.1 0 1 715.63 285.79
  Q 715.46 285.20 715.19 284.82
  Q 709.96 277.40 702.07 268.36
  Q 700.17 266.18 696.86 261.09
  C 692.13 253.79 684.39 245.56 680.30 240.45
  A 0.88 0.88 0.0 0 0 678.96 240.41
  Q 673.79 246.17 670.69 252.37
  A 3.67 3.66 78.6 0 1 670.20 253.11
  Q 665.19 258.98 661.66 265.37
  A 3.92 3.53 82.6 0 1 661.19 266.05
  Q 655.95 272.15 652.62 278.38
  A 5.55 5.25 81.3 0 1 651.99 279.29
  Q 648.37 283.50 645.70 288.77
  A 4.56 4.52 -12.3 0 1 645.11 289.68
  Q 639.80 296.14 636.30 302.33
  A 6.45 5.82 83.3 0 1 635.64 303.26
  Q 629.63 310.17 625.08 316.79
  C 623.70 318.79 622.88 320.55 621.27 322.48
  Q 619.15 325.01 615.97 330.86
  A 4.98 4.78 -11.8 0 1 615.43 331.65
  Q 610.36 337.65 606.87 343.87
  A 11.57 11.34 80.3 0 1 605.59 345.72
  Q 600.06 352.22 597.30 356.82
  Q 595.34 360.11 592.81 363.41
  Q 590.23 366.78 588.66 370.23
  A 3.33 3.23 78.8 0 1 588.11 371.08
  Q 584.68 374.94 582.13 380.12
  A 4.90 4.67 -13.9 0 1 581.66 380.86
  Q 577.23 386.70 573.28 394.00
  Q 565.82 407.81 560.31 419.30
  C 559.54 420.90 559.31 422.32 558.41 423.34
  Q 557.81 424.02 556.73 426.26
  Q 551.92 436.24 550.99 438.49
  Q 547.85 446.08 545.04 452.55
  C 544.36 454.11 543.77 456.04 543.38 457.60
  Q 543.09 458.73 542.03 461.35
  Q 537.90 471.53 536.98 474.75
  Q 536.23 477.34 534.60 481.47
  C 532.89 485.78 532.46 488.84 530.92 492.76
  Q 530.25 494.45 529.74 497.37
  A 5.12 5.03 -27.8 0 1 529.30 498.75
  Q 528.30 500.84 527.32 505.48
  A 6.36 5.38 66.8 0 1 527.02 506.46
  Q 525.81 509.37 525.15 513.32
  A 5.26 5.05 -31.3 0 1 524.90 514.26
  Q 523.20 518.69 522.93 523.55
  A 3.27 3.17 60.1 0 1 522.64 524.69
  Q 520.93 528.30 520.50 533.73
  A 7.19 7.01 -34.3 0 1 520.19 535.26
  Q 518.53 540.25 518.09 546.90
  A 5.94 5.51 56.9 0 1 517.89 548.07
  Q 516.31 553.67 516.06 559.68
  A 5.08 5.02 -35.2 0 1 515.82 561.01
  Q 513.68 567.59 513.82 575.77
  A 3.17 3.15 -30.2 0 1 513.36 577.48
  C 510.82 581.64 511.61 589.61 511.57 597.46
  A 2.21 2.17 68.4 0 1 510.92 599.00
  Q 509.49 600.44 509.46 602.75
  Q 509.31 614.51 509.43 697.75
  Q 509.43 703.99 511.18 706.81
  A 1.85 1.81 -61.1 0 1 511.46 707.82
  Q 511.23 717.83 512.70 727.56
  Q 512.85 728.61 513.46 730.01
  A 1.91 1.79 -61.6 0 1 513.61 730.58
  L 515.07 746.71
  A 1.40 1.30 31.5 0 0 515.21 747.21
  Q 515.82 748.48 515.84 749.07
  Q 516.31 758.82 517.93 764.82
  A 5.37 5.13 -54.3 0 1 518.11 766.11
  Q 518.18 771.67 518.82 776.08
  C 519.17 778.48 521.02 779.80 520.77 782.60
  A 1.18 1.18 0.0 0 0 522.83 783.48
  L 530.26 774.96
  Q 529.10 777.55 527.14 779.64
  Q 524.19 782.78 520.92 786.42
  Q 520.62 786.75 520.38 786.84
  A 0.50 0.49 79.6 0 1 519.71 786.37
  Q 519.73 782.51 518.65 778.52
  Q 517.29 773.47 517.26 768.65
  A 9.92 9.68 -51.0 0 0 517.09 766.83
  Q 515.82 759.74 515.58 757.23
  Q 515.02 751.39 514.35 747.67
  C 513.14 740.89 512.30 736.66 512.03 731.46
  Q 511.77 726.54 511.74 726.50
  Q 511.14 725.31 510.22 711.69
  C 509.88 706.76 508.83 702.15 508.66 698.03
  Q 507.46 667.87 507.57 639.66
  Q 507.60 631.46 508.10 621.86
  Q 508.55 612.89 508.57 604.02
  Q 508.58 601.75 509.56 598.69
  A 4.78 4.52 57.4 0 0 509.76 597.64
  C 510.21 591.45 510.38 586.07 511.46 579.18
  Q 514.11 562.26 517.54 543.25
  Q 523.04 512.75 532.22 485.23
  Q 535.04 476.77 540.65 461.76
  Q 545.37 449.15 550.08 438.68
  Q 559.85 416.97 570.95 396.29
  Q 572.79 392.87 573.55 391.65
  C 576.14 387.49 577.59 384.64 580.27 380.90
  Q 582.26 378.13 582.94 376.75
  C 584.76 373.07 587.40 370.31 589.39 366.73
  C 591.95 362.11 595.29 358.24 598.55 353.25
  C 601.08 349.40 603.21 346.83 605.99 343.22
  C 608.40 340.10 610.17 336.80 612.50 333.79
  Q 613.97 331.89 616.23 328.49
  Q 626.62 312.90 628.41 310.66
  Q 634.46 303.08 637.83 298.00
  Q 641.46 292.52 643.18 290.45
  C 645.72 287.40 647.74 283.42 649.96 280.15
  Q 656.33 270.74 658.29 268.03
  Q 667.17 255.69 679.22 237.47
  A 0.50 0.50 0.0 0 1 680.10 237.57
  Q 680.78 239.29 681.53 240.23
  Q 695.01 256.99 695.12 257.18
  Q 696.38 259.41 706.29 271.79
  Q 709.26 275.51 713.97 281.91
  Q 720.55 290.85 721.87 292.43
  Q 736.25 309.63 751.55 330.76
  Q 755.69 336.49 760.83 342.54
  Q 769.26 352.47 770.41 354.10
  Q 776.77 363.07 784.26 372.25
  C 785.90 374.26 787.87 377.77 789.89 380.31
  Q 792.65 383.78 800.67 393.41
  C 805.36 399.03 808.97 404.80 813.17 410.47
  A 3.18 3.18 0.0 0 1 813.21 414.20
  C 809.40 419.57 806.42 424.19 802.45 428.88
  Q 791.47 441.86 783.29 452.53
  C 782.20 453.95 781.25 455.85 780.11 457.06
  Q 778.02 459.29 765.84 475.10
  Q 762.01 480.09 743.70 502.98
  C 742.20 504.86 740.73 507.46 739.26 509.27
  C 733.53 516.28 729.51 521.68 724.41 527.68
  C 721.84 530.69 719.57 534.41 717.10 537.36
  Q 709.28 546.68 700.27 558.27
  C 698.22 560.92 696.45 564.15 694.26 566.31
  Q 692.26 568.29 671.85 594.38
  Q 658.43 611.54 656.06 614.88
  Q 653.23 618.89 648.99 623.75
  C 642.82 630.84 638.74 636.40 633.62 642.75
  Z"
/>
<path fill="#070708" d="
  M 803.50 306.93
  Q 803.32 306.97 803.14 307.01
  L 755.24 245.45
  L 755.23 244.39
  Q 758.30 247.89 761.21 251.50
  C 764.43 255.48 767.45 260.58 771.02 264.81
  Q 781.66 277.41 784.54 281.02
  A 2.13 2.03 19.7 0 1 784.94 281.82
  Q 785.25 283.10 787.95 286.53
  Q 795.19 295.70 800.33 301.84
  A 3.41 3.31 -77.8 0 1 800.78 302.56
  Q 801.86 304.91 803.50 306.93
  Z"
/>
<path fill="#8e8d8b" d="
  M 294.48 304.25
  L 294.63 304.98
  L 293.96 305.79
  Q 293.83 305.76 293.70 305.73
  Q 293.42 304.78 294.48 304.25
  Z"
/>
<path fill="#070708" d="
  M 293.70 305.73
  Q 293.83 305.76 293.96 305.79
  L 293.48 306.22
  Q 293.53 305.94 293.70 305.73
  Z"
/>
<path fill="#8e8d8b" d="
  M 292.84 306.95
  L 292.54 307.28
  Q 291.64 307.67 292.04 308.03
  L 287.86 313.23
  Q 287.26 313.48 287.57 313.78
  Q 287.18 313.66 286.75 313.78
  L 292.60 306.64
  A 0.15 0.14 -39.4 0 1 292.84 306.66
  Q 292.91 306.79 292.84 306.95
  Z"
/>
<path fill="#8e8d8b" d="
  M 803.50 306.93
  Q 803.78 307.68 803.89 307.33
  Q 803.79 307.57 803.70 307.81
  Q 803.32 307.74 803.14 307.01
  Q 803.32 306.97 803.50 306.93
  Z"
/>
<path fill="#070708" d="
  M 292.54 307.28
  L 292.04 308.03
  Q 291.64 307.67 292.54 307.28
  Z"
/>
<path fill="#070708" d="
  M 408.45 767.58
  Q 408.59 767.56 408.74 767.60
  A 0.40 0.38 -11.2 0 1 408.99 767.76
  Q 413.26 773.97 417.19 778.75
  C 421.06 783.44 423.96 788.59 427.78 793.26
  Q 434.99 802.11 440.30 809.54
  C 444.81 815.86 448.68 820.27 453.45 827.21
  C 456.52 831.69 459.93 835.44 462.79 840.01
  C 466.02 845.15 471.37 851.25 475.13 854.68
  Q 479.35 858.53 486.22 862.42
  Q 501.34 870.99 518.63 865.38
  Q 524.83 863.38 529.81 860.04
  Q 540.34 852.98 546.04 845.29
  Q 551.12 838.43 557.75 830.21
  Q 568.63 816.71 568.67 816.66
  Q 577.23 805.13 581.66 799.84
  Q 588.36 791.85 594.77 783.13
  Q 603.45 771.33 616.14 756.64
  Q 616.91 755.74 619.15 752.31
  Q 620.65 750.02 622.25 748.05
  Q 630.92 737.39 633.66 733.77
  Q 642.42 722.22 643.28 721.15
  Q 649.89 713.07 653.02 708.61
  C 659.61 699.23 668.23 689.55 674.83 680.84
  Q 690.84 659.70 695.91 653.98
  C 696.85 652.92 697.86 651.02 698.91 649.66
  Q 701.90 645.83 715.32 629.62
  C 717.71 626.73 720.55 622.14 722.46 619.72
  C 729.08 611.37 734.87 604.55 742.18 594.84
  Q 747.00 588.44 755.05 578.55
  C 759.17 573.48 761.88 568.54 765.76 564.34
  C 771.10 558.54 775.90 552.01 780.86 546.11
  C 783.48 542.99 785.95 538.43 788.79 535.00
  C 793.80 528.96 798.42 522.22 803.22 516.45
  Q 817.71 499.04 822.20 492.93
  Q 829.28 483.32 834.03 477.78
  Q 842.70 467.66 849.77 457.77
  C 852.88 453.43 857.89 448.38 860.40 443.21
  Q 865.83 432.06 867.42 423.97
  Q 868.20 420.00 868.08 411.35
  C 867.92 399.97 864.21 387.24 858.78 378.67
  Q 855.88 374.08 844.09 359.76
  Q 843.90 359.53 843.70 359.04
  A 2.16 2.04 16.7 0 0 843.36 358.45
  Q 834.86 347.90 830.43 342.34
  Q 829.22 340.81 828.46 339.30
  A 3.82 3.76 -78.3 0 0 828.06 338.68
  L 803.70 307.81
  Q 803.79 307.57 803.89 307.33
  Q 805.24 309.19 807.09 310.26
  A 1.29 1.28 -85.1 0 1 807.68 310.97
  Q 808.23 312.60 809.59 314.25
  Q 814.95 320.72 820.44 326.95
  Q 823.53 330.44 830.44 340.18
  Q 835.46 347.26 841.16 354.16
  A 4.33 4.00 13.7 0 1 841.67 354.93
  Q 843.17 357.79 845.56 360.68
  Q 851.99 368.46 856.46 373.88
  Q 859.92 378.07 862.32 383.31
  Q 864.51 388.12 866.86 394.46
  A 3.77 3.43 35.6 0 1 867.09 395.54
  Q 867.52 402.09 869.51 407.95
  Q 870.12 409.74 869.93 418.14
  A 4.59 4.49 58.0 0 1 869.56 419.84
  Q 867.93 423.68 867.29 428.30
  A 9.35 9.22 58.6 0 1 866.89 430.00
  Q 865.15 435.21 861.97 442.10
  Q 859.66 447.09 855.87 451.55
  Q 852.00 456.10 848.45 460.70
  Q 845.37 464.70 844.19 467.07
  A 3.21 3.12 81.1 0 1 843.63 467.86
  C 840.40 471.14 837.18 476.11 833.80 479.77
  C 830.16 483.72 825.62 488.78 822.92 493.30
  Q 820.98 496.55 819.23 498.47
  C 816.66 501.30 813.10 506.25 809.56 510.15
  C 804.17 516.11 799.07 521.92 795.13 528.08
  C 792.08 532.85 787.94 537.51 785.25 541.53
  Q 780.91 548.02 778.54 550.90
  Q 773.47 557.05 765.10 566.60
  Q 761.97 570.17 759.48 574.04
  Q 756.61 578.49 754.01 581.58
  Q 748.09 588.62 744.73 592.73
  Q 740.32 598.11 738.18 601.40
  C 733.31 608.85 728.33 613.93 721.86 622.11
  C 720.01 624.45 719.13 626.80 717.32 628.99
  Q 711.70 635.81 700.99 648.21
  C 698.84 650.70 696.46 653.90 694.54 656.91
  Q 691.52 661.63 689.17 664.19
  Q 680.86 673.28 675.30 682.09
  C 671.58 688.00 661.47 697.71 654.66 707.78
  Q 651.72 712.12 649.21 715.19
  Q 640.76 725.55 636.18 731.44
  Q 635.66 732.12 634.39 734.47
  A 5.66 5.53 79.9 0 1 633.84 735.28
  Q 626.28 744.44 621.31 750.54
  C 618.48 754.02 615.99 758.59 613.39 761.69
  C 603.90 772.97 599.18 778.12 594.70 784.72
  Q 591.51 789.42 590.30 790.84
  Q 589.81 791.42 576.17 807.66
  C 573.13 811.28 570.58 816.00 567.64 819.53
  C 562.33 825.91 554.64 834.41 549.07 842.56
  C 546.48 846.36 545.12 847.93 542.41 851.12
  Q 541.08 852.68 539.28 854.07
  Q 536.47 856.22 531.91 860.47
  A 2.83 2.42 4.5 0 1 531.47 860.79
  L 526.84 863.54
  A 0.75 0.47 -58.3 0 1 526.74 863.59
  Q 518.95 866.71 512.40 868.32
  Q 511.71 868.49 510.90 869.23
  A 2.34 2.32 -65.9 0 1 509.33 869.84
  L 500.89 869.84
  A 2.69 2.68 61.1 0 1 499.45 869.42
  Q 496.72 867.67 491.17 866.47
  A 3.91 3.90 -25.4 0 1 490.16 866.11
  Q 482.22 861.98 480.60 860.61
  Q 477.16 857.71 474.30 855.66
  A 5.15 4.73 84.3 0 1 473.56 855.00
  Q 467.18 847.99 466.44 846.79
  Q 462.47 840.41 455.63 831.76
  Q 454.43 830.24 451.69 826.02
  Q 449.19 822.19 447.63 820.37
  C 441.41 813.14 436.87 805.18 430.61 798.06
  Q 425.90 792.71 423.66 788.96
  C 420.93 784.38 418.07 781.16 413.70 775.33
  Q 412.65 773.93 411.08 771.46
  Q 409.83 769.49 408.45 767.58
  Z"
/>
<path fill="#070708" d="
  M 287.86 313.23
  L 287.57 313.78
  Q 287.26 313.48 287.86 313.23
  Z"
/>
<path fill="#070708" d="
  M 287.57 313.78
  Q 286.43 315.12 283.22 320.01
  Q 280.35 324.40 268.64 337.64
  Q 256.71 351.11 247.36 362.61
  Q 246.62 363.52 243.99 367.98
  Q 242.49 370.52 231.64 382.49
  A 1.74 1.62 76.6 0 0 231.30 383.09
  L 231.25 383.23
  A 1.63 1.63 0.0 0 0 233.00 385.36
  Q 237.74 384.77 240.73 386.66
  A 3.13 3.09 67.2 0 0 241.79 387.10
  Q 246.12 388.08 252.00 388.06
  A 0.89 0.77 55.0 0 1 252.39 388.16
  L 254.71 389.33
  A 4.95 4.94 62.7 0 0 256.14 389.79
  Q 262.30 390.73 270.41 390.53
  C 272.02 390.49 272.21 392.19 273.72 392.74
  A 1.84 1.69 52.7 0 0 274.33 392.85
  L 300.72 393.25
  A 0.77 0.76 70.1 0 1 301.31 393.53
  L 303.02 395.52
  L 300.03 394.90
  A 0.69 0.61 48.6 0 0 299.87 394.88
  L 286.26 394.78
  C 282.04 394.20 277.82 393.34 273.64 393.04
  C 270.98 392.85 268.41 391.85 265.45 391.81
  C 260.96 391.75 256.84 390.40 253.29 389.89
  Q 243.24 388.44 231.37 385.63
  Q 230.42 385.40 229.84 384.97
  A 1.18 1.18 0.0 0 1 229.71 383.20
  C 233.82 379.10 239.87 371.91 243.90 366.41
  Q 252.45 354.77 263.11 342.82
  C 271.01 333.95 278.95 323.52 286.75 313.78
  Q 287.18 313.66 287.57 313.78
  Z"
/>
<path fill="#8e8d8b" d="
  M 536.04 331.32
  Q 535.78 331.65 535.52 331.72
  Q 535.80 331.23 536.04 331.32
  Z"
/>
<path fill="#8e8d8b" d="
  M 520.82 341.76
  L 522.00 341.81
  Q 510.48 350.69 498.58 357.05
  Q 490.25 361.50 488.45 362.52
  Q 483.96 365.05 482.44 365.74
  C 476.91 368.22 473.31 370.19 467.69 372.18
  Q 466.23 372.70 462.03 374.69
  Q 460.28 375.52 456.26 376.94
  Q 439.66 382.81 422.19 388.04
  A 2.69 2.54 35.4 0 1 421.47 388.14
  L 419.58 388.14
  A 1.70 1.32 30.5 0 0 419.18 388.19
  Q 412.95 389.76 409.82 390.17
  Q 405.86 390.68 404.03 391.17
  Q 399.97 392.25 398.26 392.47
  Q 376.72 395.18 354.96 396.51
  Q 355.33 395.85 356.80 395.98
  Q 357.03 396.00 357.25 395.95
  A 0.11 0.11 0.0 0 0 357.24 395.73
  L 355.78 395.61
  L 362.91 394.88
  A 1.85 1.80 24.1 0 0 363.73 394.58
  Q 365.44 393.39 367.12 393.34
  C 373.62 393.15 379.76 393.47 385.70 392.63
  Q 386.17 393.20 386.82 392.48
  Q 389.84 392.39 392.58 391.19
  A 2.79 2.61 -56.9 0 1 393.51 390.96
  L 397.96 390.69
  Q 398.64 390.78 399.20 390.54
  Q 403.22 390.14 407.09 389.15
  Q 411.46 388.04 413.51 387.88
  Q 416.81 387.64 420.00 386.70
  C 424.20 385.46 427.57 384.87 430.88 383.48
  Q 432.05 382.98 436.59 382.11
  A 9.50 9.03 -59.4 0 0 438.10 381.68
  Q 438.11 381.67 446.34 379.03
  C 460.76 374.39 474.17 368.46 487.40 361.29
  Q 504.42 352.06 520.82 341.76
  Z"
/>
<path fill="#070708" d="
  M 399.20 390.54
  Q 398.64 390.78 397.96 390.69
  L 399.20 390.54
  Z"
/>
<path fill="#070708" d="
  M 386.82 392.48
  Q 386.17 393.20 385.70 392.63
  L 386.82 392.48
  Z"
/>
<path fill="#8e8d8b" d="
  M 303.02 395.52
  Q 304.57 395.99 306.05 395.70
  L 306.54 395.63
  L 307.96 395.66
  L 320.50 395.81
  L 327.10 397.04
  Q 316.80 397.81 306.58 396.55
  Q 301.29 395.89 296.42 395.67
  Q 291.33 395.43 286.26 394.78
  L 299.87 394.88
  A 0.69 0.61 48.6 0 1 300.03 394.90
  L 303.02 395.52
  Z"
/>
<path fill="#070708" d="
  M 306.05 395.70
  Q 304.57 395.99 303.02 395.52
  L 306.05 395.70
  Z"
/>
<path fill="#070708" d="
  M 307.96 395.66
  L 306.54 395.63
  L 307.96 395.66
  Z"
/>
<path fill="#070708" d="
  M 355.78 395.61
  L 357.24 395.73
  A 0.11 0.11 0.0 0 1 357.25 395.95
  Q 357.03 396.00 356.80 395.98
  Q 355.33 395.85 354.96 396.51
  Q 341.13 397.58 327.10 397.04
  L 320.50 395.81
  L 355.78 395.61
  Z"
/>
<path fill="#070708" d="
  M 459.89 617.21
  Q 459.85 617.25 459.81 617.28
  L 460.05 591.92
  A 1.58 1.58 0.0 0 1 460.19 591.27
  L 461.44 588.40
  A 1.53 1.42 -33.4 0 0 461.54 587.99
  L 462.86 569.91
  A 1.61 1.56 -32.8 0 1 462.95 569.52
  Q 463.32 568.66 463.38 568.19
  Q 464.55 559.84 464.83 551.00
  A 8.21 7.17 -41.1 0 1 465.02 549.60
  Q 466.64 542.54 467.01 534.98
  A 5.37 5.35 -33.6 0 1 467.34 533.37
  Q 468.79 529.44 469.09 524.20
  A 3.70 3.67 58.0 0 1 469.34 523.10
  Q 471.06 518.85 471.57 513.79
  A 5.14 4.64 -35.0 0 1 471.85 512.57
  Q 472.77 510.05 473.44 505.76
  Q 473.91 502.78 475.03 498.90
  Q 482.51 473.08 482.89 471.48
  C 483.48 468.96 484.76 466.37 485.10 463.46
  A 2.61 2.37 -31.0 0 1 485.35 462.63
  Q 486.97 459.30 487.56 455.40
  A 4.04 3.88 62.3 0 1 487.87 454.33
  Q 490.17 449.15 491.55 444.33
  Q 492.29 441.72 493.02 440.04
  Q 494.90 435.73 500.90 421.94
  C 502.09 419.21 499.88 417.42 497.22 419.02
  Q 494.56 420.61 493.26 420.96
  C 490.08 421.82 485.39 424.13 483.61 425.65
  A 1.44 1.41 23.9 0 1 482.67 426.00
  Q 481.35 426.02 478.28 427.46
  Q 476.56 428.27 474.05 429.22
  Q 458.22 435.18 457.73 435.38
  C 454.28 436.80 450.48 437.06 447.22 438.67
  A 4.31 4.08 -62.5 0 1 446.18 439.03
  Q 438.93 440.61 430.75 444.00
  A 4.21 4.12 29.6 0 1 429.69 444.28
  L 422.56 445.29
  A 3.01 2.89 24.8 0 0 421.43 445.68
  L 419.48 446.80
  A 1.43 1.39 27.4 0 1 418.85 446.99
  L 409.12 447.69
  A 3.72 3.70 25.4 0 0 407.23 448.36
  C 405.91 449.29 405.44 449.82 403.42 449.85
  Q 392.09 450.01 389.01 450.18
  C 386.41 450.32 386.15 452.37 384.08 452.42
  Q 368.46 452.75 353.29 452.48
  Q 356.02 452.05 358.76 451.93
  Q 367.06 451.58 375.36 451.62
  Q 374.53 451.81 374.43 451.70
  A 0.28 0.28 0.0 0 1 374.69 451.24
  Q 376.21 451.57 381.00 450.81
  Q 388.84 449.56 396.68 448.43
  C 400.16 447.92 403.88 448.31 406.96 447.22
  C 411.91 445.45 417.21 446.30 421.62 444.07
  A 2.69 2.69 0.0 0 1 422.55 443.80
  Q 424.21 443.65 426.13 443.19
  Q 454.36 436.42 479.98 425.72
  Q 487.07 422.76 500.03 416.22
  A 4.89 4.69 -77.2 0 0 500.91 415.64
  Q 502.68 414.17 503.73 413.75
  A 0.47 0.46 5.4 0 1 504.30 414.43
  Q 503.50 415.68 501.75 420.98
  Q 500.68 424.22 499.22 427.63
  Q 491.74 445.06 485.60 465.58
  Q 482.26 476.72 480.31 483.35
  Q 477.27 493.62 475.50 501.22
  Q 470.28 523.62 468.65 533.83
  C 467.64 540.16 466.67 545.06 466.18 549.33
  Q 464.31 565.84 463.42 575.87
  C 462.95 581.13 461.51 588.51 461.28 594.25
  Q 460.72 608.51 459.89 617.21
  Z"
/>
<path fill="#8e8d8b" d="
  M 439.53 439.72
  Q 439.37 439.80 439.16 439.76
  A 0.07 0.07 0.0 0 1 439.13 439.64
  Q 439.26 439.53 439.51 439.58
  A 0.08 0.07 -53.3 0 1 439.53 439.72
  Z"
/>
<path fill="#070708" d="
  M 317.82 452.37
  Q 303.63 452.77 289.50 452.44
  C 287.76 452.40 286.06 452.27 284.02 451.35
  C 279.48 449.31 273.96 449.94 267.00 449.81
  C 263.88 449.75 260.56 448.42 258.00 448.06
  Q 255.90 447.76 247.50 447.03
  A 3.54 3.41 61.8 0 1 246.07 446.57
  C 244.12 445.44 237.65 443.08 235.95 445.20
  A 1.76 1.64 41.0 0 0 236.20 447.51
  Q 242.35 453.23 245.80 459.82
  A 7.90 7.64 12.4 0 0 246.65 461.10
  Q 253.83 469.76 259.43 477.24
  C 260.68 478.90 261.58 480.75 262.74 482.26
  Q 264.93 485.11 278.04 501.00
  A 3.64 3.35 16.1 0 1 278.58 501.89
  Q 279.33 503.66 279.93 504.42
  Q 289.15 516.26 291.50 519.32
  C 292.24 520.29 293.08 522.05 293.66 522.84
  Q 296.01 526.03 307.28 539.97
  C 308.06 540.93 309.09 543.08 310.14 544.47
  Q 315.08 550.98 321.57 559.15
  C 322.12 559.85 322.19 560.62 322.66 561.27
  Q 329.49 570.67 334.86 576.93
  A 5.88 5.88 0.0 0 1 335.58 578.01
  Q 336.86 580.56 338.97 583.19
  Q 345.28 591.08 353.45 600.80
  A 3.43 3.26 -77.2 0 1 353.95 601.64
  Q 354.84 603.84 356.46 605.87
  Q 358.85 608.85 367.36 619.67
  Q 367.61 619.99 368.10 621.24
  A 3.76 3.54 -75.7 0 0 368.57 622.09
  L 385.32 644.37
  Q 385.21 644.45 385.10 644.52
  A 0.16 0.15 54.7 0 1 384.89 644.48
  L 232.32 443.62
  A 0.77 0.77 0.0 0 1 233.01 442.39
  Q 238.87 443.00 243.57 444.21
  C 252.48 446.51 262.56 447.59 270.87 448.11
  Q 271.97 448.18 281.44 449.53
  Q 282.56 449.69 292.07 450.62
  Q 309.79 452.36 317.82 452.37
  Z"
/>
<path fill="#070708" d="
  M 339.56 452.46
  L 338.72 452.49
  Q 339.18 451.95 339.56 452.46
  Z"
/>
<path fill="#070708" d="
  M 343.58 452.44
  Q 342.60 452.79 341.64 452.52
  Q 342.45 451.64 343.58 452.44
  Z"
/>
<path fill="#070708" d="
  M 338.72 452.49
  Q 337.84 452.76 336.79 452.57
  L 338.72 452.49
  Z"
/>
<path fill="#070708" d="
  M 285.26 604.50
  Q 276.95 595.71 270.43 585.55
  L 285.26 604.50
  Z"
/>
<path fill="#070708" d="
  M 287.04 606.79
  Q 285.76 605.82 285.26 604.50
  Q 286.52 605.52 287.04 606.79
  Z"
/>
<path fill="#070708" d="
  M 289.03 609.48
  Q 288.11 608.92 287.78 607.79
  Q 288.63 608.51 289.03 609.48
  Z"
/>
<path fill="#070708" d="
  M 290.05 610.92
  Q 289.63 610.81 289.53 610.21
  Q 289.96 610.24 290.05 610.92
  Z"
/>
<path fill="#070708" d="
  M 408.45 767.58
  L 394.45 750.81
  A 1.99 1.82 -78.1 0 1 394.16 750.32
  Q 393.53 748.74 393.00 748.00
  Q 388.14 741.20 381.01 732.68
  A 5.12 4.97 12.2 0 1 380.47 731.87
  Q 378.47 728.12 375.59 724.65
  Q 363.73 710.34 362.85 709.32
  A 3.14 3.08 14.2 0 1 362.37 708.53
  Q 361.17 705.79 358.75 702.75
  Q 355.19 698.28 349.04 690.64
  A 5.23 4.75 15.7 0 1 348.54 689.84
  Q 347.16 687.04 345.75 685.25
  Q 336.78 673.90 335.50 672.25
  Q 334.76 671.29 334.15 669.92
  A 5.08 4.87 -77.5 0 0 333.53 668.90
  L 319.04 650.66
  A 1.19 0.68 29.9 0 1 318.97 650.54
  Q 318.16 648.78 315.60 645.42
  Q 312.44 641.27 307.35 635.15
  Q 304.67 631.93 300.08 625.09
  Q 296.83 620.25 292.62 615.17
  C 291.51 613.84 290.81 612.43 290.05 610.92
  C 296.40 618.38 302.06 627.49 308.92 635.95
  C 314.88 643.29 319.57 650.23 325.27 657.16
  C 330.54 663.58 336.26 672.43 341.89 679.14
  C 345.54 683.49 348.13 688.11 351.66 692.42
  C 357.00 698.95 361.57 705.84 366.39 711.95
  C 371.43 718.33 374.18 721.47 378.35 727.45
  C 382.47 733.35 387.45 739.04 392.05 745.65
  Q 399.02 755.67 407.86 765.98
  A 1.39 1.31 18.5 0 1 408.15 766.52
  L 408.45 767.58
  Z"
/>
<path fill="#8e8d8b" d="
  M 459.89 617.21
  Q 459.99 617.68 459.79 618.04
  Q 459.72 617.92 459.66 617.79
  Q 459.69 617.51 459.81 617.28
  Q 459.85 617.25 459.89 617.21
  Z"
/>
<path fill="#070708" d="
  M 459.66 617.79
  Q 459.72 617.92 459.79 618.04
  L 459.69 619.29
  Q 459.65 619.27 459.61 619.25
  L 459.66 617.79
  Z"
/>
<path fill="#8e8d8b" d="
  M 459.69 619.29
  Q 459.95 620.08 459.57 620.79
  Q 459.46 620.03 459.61 619.25
  Q 459.65 619.27 459.69 619.29
  Z"
/>
<path fill="#070708" d="
  M 459.58 631.19
  Q 459.53 631.29 459.48 631.40
  Q 457.24 628.67 459.41 625.80
  L 459.58 631.19
  Z"
/>
<path fill="#8e8d8b" d="
  M 459.58 631.19
  Q 459.91 632.13 459.60 633.04
  L 459.48 631.40
  Q 459.53 631.29 459.58 631.19
  Z"
/>
<path fill="#8e8d8b" d="
  M 459.96 643.54
  Q 459.91 643.54 459.85 643.54
  L 459.78 641.54
  L 459.96 643.54
  Z"
/>
<path fill="#8e8d8b" d="
  M 633.62 642.75
  L 632.43 644.65
  Q 632.21 644.11 632.24 643.51
  Q 632.80 642.91 632.58 642.87
  L 633.62 642.75
  Z"
/>
<path fill="#070708" d="
  M 459.96 643.54
  Q 460.37 664.65 461.03 685.75
  Q 461.23 692.35 461.72 697.57
  C 461.93 699.86 462.42 701.36 463.07 703.74
  A 4.12 4.10 37.3 0 1 463.22 704.84
  Q 463.34 714.68 464.36 724.73
  C 464.59 726.94 465.27 729.30 465.44 731.78
  Q 465.88 738.20 466.69 744.51
  Q 464.40 743.08 464.43 741.26
  C 464.53 735.03 465.01 727.40 462.70 721.49
  A 4.44 4.35 34.0 0 1 462.39 719.98
  Q 462.19 714.32 461.95 703.90
  C 461.92 702.36 460.60 701.82 460.02 700.44
  A 1.95 1.95 0.0 0 1 459.87 699.69
  L 459.85 643.54
  Q 459.91 643.54 459.96 643.54
  Z"
/>
<path fill="#070708" d="
  M 632.24 643.51
  Q 632.21 644.11 632.43 644.65
  Q 624.25 655.11 615.94 665.52
  C 611.05 671.65 607.01 677.29 601.53 683.66
  C 598.37 687.33 594.96 692.09 591.25 696.75
  Q 591.10 696.94 590.98 697.44
  A 2.00 1.99 -18.3 0 1 590.58 698.23
  Q 573.58 718.79 564.16 731.40
  Q 561.74 734.63 553.61 744.79
  Q 553.23 745.26 544.61 756.88
  Q 540.12 762.92 535.27 768.71
  L 534.71 768.76
  Q 535.35 767.03 535.77 766.51
  Q 543.39 757.24 550.35 747.85
  Q 550.69 747.39 551.31 746.18
  A 4.00 3.86 -13.0 0 1 551.83 745.38
  Q 563.02 731.62 565.25 729.02
  Q 568.04 725.75 570.05 722.75
  Q 573.13 718.15 574.65 716.34
  Q 581.20 708.53 589.72 697.73
  C 591.01 696.10 592.29 693.71 593.69 691.99
  Q 603.33 680.09 607.01 675.77
  Q 610.38 671.83 612.61 668.64
  Q 616.05 663.71 617.97 661.33
  Q 625.12 652.44 632.24 643.51
  Z"
/>
<path fill="#070708" d="
  M 386.31 645.75
  Q 385.31 645.86 385.32 644.37
  L 386.31 645.75
  Z"
/>
<path fill="#070708" d="
  M 446.74 725.84
  Q 444.41 723.26 442.36 720.47
  Q 439.60 716.71 438.13 714.99
  C 434.48 710.72 431.20 705.60 427.39 700.64
  Q 414.57 683.96 402.48 667.51
  Q 396.63 659.56 386.16 646.38
  A 0.36 0.35 39.6 0 1 386.12 646.00
  Q 386.21 645.82 386.31 645.75
  L 399.26 661.68
  A 2.50 2.37 -77.3 0 1 399.63 662.30
  Q 399.99 663.20 400.55 663.96
  Q 406.10 671.54 412.26 679.46
  C 413.24 680.73 413.94 682.11 414.86 683.31
  Q 418.74 688.38 428.86 700.98
  A 2.45 2.21 15.4 0 1 429.16 701.45
  Q 429.92 703.07 430.81 704.24
  Q 433.87 708.30 442.31 718.90
  A 5.46 5.11 -80.0 0 1 442.87 719.76
  Q 444.52 722.86 446.74 725.84
  Z"
/>
<path fill="#070708" d="
  M 447.23 726.52
  Q 446.76 726.32 446.74 725.84
  Q 447.12 725.97 447.23 726.52
  Z"
/>
<path fill="#070708" d="
  M 448.24 727.77
  Q 447.59 727.37 447.23 726.52
  Q 447.91 726.98 448.24 727.77
  Z"
/>
<path fill="#070708" d="
  M 466.88 746.63
  L 467.61 752.87
  A 0.22 0.22 0.0 0 1 467.21 753.03
  L 448.24 727.77
  Q 456.06 736.44 463.42 745.47
  Q 464.38 746.64 465.05 747.07
  Q 466.46 747.96 466.88 746.63
  Z"
/>
<path fill="#8e8d8b" d="
  M 534.71 768.76
  L 535.27 768.71
  Q 534.87 769.79 533.76 770.74
  L 533.67 770.27
  L 534.71 768.76
  Z"
/>
<path fill="#070708" d="
  M 533.67 770.27
  L 533.76 770.74
  L 532.75 771.77
  Q 533.07 770.94 533.67 770.27
  Z"
/>
<path fill="#070708" d="
  M 532.75 771.77
  L 531.47 773.73
  Q 531.35 773.76 531.23 773.78
  Q 531.76 772.58 532.75 771.77
  Z"
/>
<path fill="#8e8d8b" d="
  M 531.23 773.78
  Q 531.35 773.76 531.47 773.73
  Q 531.38 774.21 531.02 774.53
  L 530.98 774.02
  L 531.23 773.78
  Z"
/>
<path fill="#070708" d="
  M 530.98 774.02
  L 531.02 774.53
  Q 530.64 774.91 530.26 774.96
  Q 530.48 774.44 530.98 774.02
  Z"
/>
</svg>
